<?xml version="1.0" encoding="utf-8"?>
<!-- Generator: Adobe Illustrator 23.0.3, SVG Export Plug-In . SVG Version: 6.00 Build 0)  -->
<svg version="1.1" id="Layer_1" xmlns="http://www.w3.org/2000/svg" xmlns:xlink="http://www.w3.org/1999/xlink" x="0px" y="0px"
	 viewBox="0 0 56.3 18" style="enable-background:new 0 0 56.3 18;" xml:space="preserve">
<style type="text/css">
	.st0{fill:#151414;stroke:#2B7EC2;stroke-width:2;stroke-miterlimit:10;}
	.st1{fill:#2B7EC2;}
</style>
<g>
	<g>
		<path class="st0" d="M135.6,37.4c0,7.5-6.1,13.6-13.6,13.6H94.9c-7.5,0-13.6-6.1-13.6-13.6V10.3c0.1-7.5,6.1-13.6,13.6-13.6H122
			c7.5,0,13.6,6.1,13.6,13.6C135.6,10.3,135.6,37.4,135.6,37.4z"/>
		<g>
			<path class="st0" d="M124.5,10.8c-1.3,0.8-2.8,1.4-4.4,1.7c-1.3-1.3-3.1-2.2-5.1-2.2c-3.8,0-6.9,3.1-6.9,6.8
				c0,0.5,0.1,1.1,0.2,1.6c-5.8-0.3-10.9-3-14.3-7.1c-0.6,1-0.9,2.2-0.9,3.4c0,2.4,1.2,4.5,3.1,5.7c-1.1,0-2.2-0.3-3.1-0.9v0.1
				c0,3.3,2.4,6.1,5.6,6.7c-0.6,0.2-1.2,0.2-1.8,0.2c-0.4,0-0.9,0-1.3-0.1c0.9,2.7,3.5,4.7,6.5,4.8c-2.4,1.8-5.4,2.9-8.6,2.9
				c-0.6,0-1.1,0-1.7-0.1c3.1,1.9,6.7,3.1,10.7,3.1c12.8,0,19.8-10.4,19.8-19.5c0-0.3,0-0.6,0-0.9c1.4-1,2.5-2.2,3.5-3.5
				c-1.2,0.5-2.6,0.9-4,1.1C122.8,13.7,123.9,12.4,124.5,10.8z"/>
		</g>
	</g>
</g>
<g>
	<g>
		<g>
			<path class="st1" d="M54.4,3.6c0.4,0.2,0.8,0.5,1.2,0.9c0.3,0.3,0.5,0.7,0.6,1.2c0.1,0.3,0.1,0.8,0.1,1.4l0,6.1h-2.7V7
				c0-0.4-0.1-0.7-0.2-0.9c-0.2-0.5-0.7-0.7-1.3-0.7c-0.7,0-1.2,0.3-1.5,0.9c-0.1,0.3-0.2,0.7-0.2,1.1v5.8h-2.6V7.4
				c0-0.6-0.1-1-0.2-1.3c-0.2-0.5-0.6-0.7-1.3-0.7c-0.7,0-1.2,0.2-1.5,0.7c-0.1,0.3-0.2,0.7-0.2,1.2v5.8h-2.6V3.5h2.5v1.4
				c0.3-0.5,0.6-0.9,0.9-1.1c0.5-0.4,1.2-0.6,2-0.6c0.8,0,1.4,0.2,1.8,0.5C49.5,4.1,49.8,4.5,50,5c0.3-0.6,0.8-1,1.3-1.3
				c0.5-0.3,1.1-0.4,1.8-0.4C53.5,3.3,53.9,3.4,54.4,3.6z"/>
			<path class="st1" d="M8.6,2.3H2.7v2.8h5.9v2.3H2.8v3.4h5.9v2.4H0V0h8.6V2.3z"/>
			<path class="st1" d="M40.6,2.3h-5.8v2.8h5.9v2.3h-5.9v3.4h5.9v2.4H32V0h8.6L40.6,2.3L40.6,2.3z"/>
			<path class="st1" d="M13.9,13.3L9.6,3.2h2.9l2.8,7.1L18,3.2h2.8l-4,9.9l-2,5H12L13.9,13.3z"/>
			<path class="st1" d="M27.9,3.6c0.7,0.3,1.3,0.8,1.7,1.4c0.4,0.6,0.7,1.2,0.8,2c0.1,0.4,0.1,1.1,0.1,1.9h-7.2c0,1,0.4,1.7,1,2
				c0.4,0.2,0.9,0.4,1.4,0.4c0.6,0,1.1-0.1,1.4-0.4c0.2-0.2,0.4-0.4,0.5-0.7h2.7c-0.1,0.6-0.4,1.2-1,1.7c-0.9,0.9-2.1,1.4-3.7,1.4
				c-1.3,0-2.5-0.4-3.5-1.2c-1-0.8-1.5-2.1-1.5-3.9c0-1.7,0.5-3,1.4-3.9c0.9-0.9,2.1-1.3,3.6-1.3C26.4,3.2,27.2,3.3,27.9,3.6z
				 M24,5.8c-0.4,0.4-0.6,0.9-0.7,1.5h4.5c0-0.7-0.3-1.2-0.7-1.5c-0.4-0.3-0.9-0.5-1.5-0.5C24.9,5.2,24.3,5.4,24,5.8z"/>
		</g>
	</g>
</g>
</svg>
