<?xml version="1.0" encoding="utf-8"?>
<!-- Generator: Adobe Illustrator 16.0.0, SVG Export Plug-In . SVG Version: 6.00 Build 0)  -->
<!DOCTYPE svg PUBLIC "-//W3C//DTD SVG 1.1//EN" "http://www.w3.org/Graphics/SVG/1.1/DTD/svg11.dtd">
<svg version="1.1" id="Layer_1" xmlns="http://www.w3.org/2000/svg" xmlns:xlink="http://www.w3.org/1999/xlink" x="0px" y="0px"
	 width="35.894px" height="12.107px" viewBox="0 0 35.894 12.107" enable-background="new 0 0 35.894 12.107" xml:space="preserve">
<g>
	<g>
		<path fill="#BFBFBF" d="M34.322,2.543c0.266,0.104,0.509,0.291,0.725,0.558c0.176,0.214,0.295,0.482,0.355,0.798
			c0.037,0.21,0.057,0.516,0.057,0.918l-0.01,3.924h-1.668V4.779c0-0.236-0.039-0.43-0.115-0.582
			c-0.143-0.29-0.41-0.434-0.799-0.434c-0.447,0-0.76,0.186-0.93,0.56c-0.088,0.197-0.131,0.434-0.131,0.713v3.706h-1.639V5.035
			c0-0.369-0.039-0.637-0.115-0.804c-0.137-0.301-0.404-0.449-0.805-0.449c-0.463,0-0.775,0.148-0.936,0.449
			c-0.088,0.171-0.131,0.427-0.131,0.766v3.746h-1.648V2.529h1.58v0.908c0.201-0.324,0.393-0.553,0.57-0.69
			C29,2.503,29.41,2.38,29.911,2.38c0.476,0,0.86,0.106,1.153,0.315c0.236,0.193,0.414,0.443,0.535,0.748
			c0.215-0.365,0.479-0.633,0.795-0.805c0.334-0.17,0.707-0.258,1.119-0.258C33.786,2.38,34.056,2.433,34.322,2.543z"/>
		<path fill="#BFBFBF" d="M5.697,1.747h-3.64v1.79h3.685v1.459H2.058V7.16h3.689v1.514H0.338V0.257h5.359V1.747z"/>
		<path fill="#BFBFBF" d="M25.689,1.747h-3.641v1.79h3.686v1.459h-3.686V7.16h3.691v1.514h-5.41V0.257h5.359V1.747z"/>
		<path fill="#BFBFBF" d="M9.044,8.785L6.354,2.289h1.809l1.763,4.59l1.687-4.59h1.729l-2.518,6.346l-1.228,3.188H7.831L9.044,8.785
			z"/>
		<path fill="#BFBFBF" d="M17.755,2.576c0.436,0.195,0.793,0.502,1.075,0.922c0.255,0.369,0.421,0.799,0.497,1.285
			c0.042,0.285,0.061,0.698,0.053,1.236H14.85c0.024,0.624,0.241,1.061,0.65,1.313c0.248,0.157,0.547,0.232,0.896,0.232
			c0.371,0,0.671-0.093,0.904-0.284c0.127-0.102,0.236-0.246,0.336-0.428h1.66c-0.043,0.369-0.244,0.745-0.604,1.125
			c-0.559,0.605-1.338,0.908-2.34,0.908c-0.83,0-1.56-0.256-2.193-0.766c-0.632-0.513-0.949-1.342-0.949-2.492
			c0-1.076,0.285-1.905,0.858-2.479c0.57-0.576,1.313-0.865,2.225-0.865C16.835,2.283,17.322,2.38,17.755,2.576z M15.322,3.98
			c-0.229,0.238-0.375,0.558-0.435,0.965h2.805c-0.031-0.432-0.176-0.76-0.436-0.984c-0.26-0.223-0.581-0.334-0.964-0.334
			C15.877,3.627,15.552,3.744,15.322,3.98z"/>
	</g>
</g>
</svg>
