<?xml version="1.0" encoding="utf-8"?>
<!-- Generator: Adobe Illustrator 23.0.3, SVG Export Plug-In . SVG Version: 6.00 Build 0)  -->
<svg version="1.1" id="Layer_1" xmlns="http://www.w3.org/2000/svg" xmlns:xlink="http://www.w3.org/1999/xlink" x="0px" y="0px"
	 viewBox="0 0 56.3 56" style="enable-background:new 0 0 56.3 56;" xml:space="preserve">
<style type="text/css">
	.st0{fill:#151414;stroke:#2B7EC2;stroke-width:2;stroke-miterlimit:10;}
</style>
<g>
	<g>
		<path class="st0" d="M135.6,57c0,7.5-6.1,13.6-13.6,13.6H94.9c-7.5,0-13.6-6.1-13.6-13.6V29.9c0.1-7.5,6.1-13.6,13.6-13.6H122
			c7.5,0,13.6,6.1,13.6,13.6C135.6,29.9,135.6,57,135.6,57z"/>
		<g>
			<path class="st0" d="M124.5,30.4c-1.3,0.8-2.8,1.4-4.4,1.7c-1.3-1.3-3.1-2.2-5.1-2.2c-3.8,0-6.9,3.1-6.9,6.8
				c0,0.5,0.1,1.1,0.2,1.6c-5.8-0.3-10.9-3-14.3-7.1c-0.6,1-0.9,2.2-0.9,3.4c0,2.4,1.2,4.5,3.1,5.7c-1.1,0-2.2-0.3-3.1-0.9v0.1
				c0,3.3,2.4,6.1,5.6,6.7c-0.6,0.2-1.2,0.2-1.8,0.2c-0.4,0-0.9,0-1.3-0.1c0.9,2.7,3.5,4.7,6.5,4.8c-2.4,1.8-5.4,2.9-8.6,2.9
				c-0.6,0-1.1,0-1.7-0.1c3.1,1.9,6.7,3.1,10.7,3.1c12.8,0,19.8-10.4,19.8-19.5c0-0.3,0-0.6,0-0.9c1.4-1,2.5-2.2,3.5-3.5
				c-1.2,0.5-2.6,0.9-4,1.1C122.8,33.3,123.9,32,124.5,30.4z"/>
		</g>
	</g>
</g>
<g>
	<g>
		<path class="st0" d="M55.5,41.6c0,7.5-6.1,13.5-13.5,13.5H14.8C7.4,55.2,1.2,49,1.2,41.6V14.4C1.2,7,7.4,0.9,14.8,0.9h27.1
			c7.5,0,13.5,6.1,13.5,13.5v27.3H55.5z"/>
		<g>
			<path class="st0" d="M23.9,44.9h6.8c0,0,0-9.3,0-16.9h5l0.6-6.8h-5.4v-2.7c0-1.3,0.9-1.6,1.5-1.6c0.6,0,3.8,0,3.8,0v-5.8H31
				c-5.8,0-7.1,4.3-7.1,7.1v3.1h-3.4v6.8h3.4C23.9,35.7,23.9,44.9,23.9,44.9z"/>
		</g>
	</g>
</g>
</svg>
