<?xml version="1.0" encoding="utf-8"?>
<!-- Generator: Adobe Illustrator 23.0.3, SVG Export Plug-In . SVG Version: 6.00 Build 0)  -->
<svg version="1.1" id="Layer_1" xmlns="http://www.w3.org/2000/svg" xmlns:xlink="http://www.w3.org/1999/xlink" x="0px" y="0px"
	 viewBox="0 0 56.3 56" style="enable-background:new 0 0 56.3 56;" xml:space="preserve">
<style type="text/css">
	.st0{fill:#151414;stroke:#2B7EC2;stroke-width:2;stroke-miterlimit:10;}
</style>
<g>
	<g>
		<path class="st0" d="M55.5,41.4c0,7.5-6.1,13.6-13.6,13.6H14.8C7.3,55,1.2,48.9,1.2,41.4V14.3c0-7.5,6.1-13.6,13.6-13.6h27.2
			c7.5,0,13.6,6.1,13.6,13.6V41.4z"/>
		<g>
			<path class="st0" d="M38.7,10.9H17.9c-3.6,0-6.6,2.9-6.6,6.6v6.9v13.9c0,3.6,2.9,6.6,6.6,6.6h20.8c3.6,0,6.6-2.9,6.6-6.6V24.3
				v-6.9C45.3,13.8,42.4,10.9,38.7,10.9z M40.7,14.8h0.8v0.7v5h-5.8v-5.8L40.7,14.8z M23.5,24.3c1.1-1.5,2.8-2.5,4.9-2.5
				s3.7,1,4.9,2.5c0.7,1,1.1,2.1,1.1,3.5c0,3.3-2.7,6-6,6s-6-2.7-6-6C22.3,26.6,22.8,25.4,23.5,24.3z M42,38.3
				c0,1.8-1.5,3.3-3.3,3.3H17.9c-1.8,0-3.3-1.5-3.3-3.3V24.3h5.1c-0.5,1.1-0.7,2.3-0.7,3.5c0,5.1,4.2,9.3,9.3,9.3s9.3-4.2,9.3-9.3
				c0-1.2-0.2-2.4-0.7-3.5H42C42,24.3,42,38.3,42,38.3z"/>
		</g>
	</g>
</g>
<g>
	<g>
		<path class="st0" d="M135.6,57c0,7.5-6.1,13.6-13.6,13.6H94.9c-7.5,0-13.6-6.1-13.6-13.6V29.9c0.1-7.5,6.1-13.6,13.6-13.6H122
			c7.5,0,13.6,6.1,13.6,13.6C135.6,29.9,135.6,57,135.6,57z"/>
		<g>
			<path class="st0" d="M124.5,30.4c-1.3,0.8-2.8,1.4-4.4,1.7c-1.3-1.3-3.1-2.2-5.1-2.2c-3.8,0-6.9,3.1-6.9,6.8
				c0,0.5,0.1,1.1,0.2,1.6c-5.8-0.3-10.9-3-14.3-7.1c-0.6,1-0.9,2.2-0.9,3.4c0,2.4,1.2,4.5,3.1,5.7c-1.1,0-2.2-0.3-3.1-0.9v0.1
				c0,3.3,2.4,6.1,5.6,6.7c-0.6,0.2-1.2,0.2-1.8,0.2c-0.4,0-0.9,0-1.3-0.1c0.9,2.7,3.5,4.7,6.5,4.8c-2.4,1.8-5.4,2.9-8.6,2.9
				c-0.6,0-1.1,0-1.7-0.1c3.1,1.9,6.7,3.1,10.7,3.1c12.8,0,19.8-10.4,19.8-19.5c0-0.3,0-0.6,0-0.9c1.4-1,2.5-2.2,3.5-3.5
				c-1.2,0.5-2.6,0.9-4,1.1C122.8,33.3,123.9,32,124.5,30.4z"/>
		</g>
	</g>
</g>
</svg>
