<?xml version="1.0" encoding="utf-8"?>
<!-- Generator: Adobe Illustrator 23.0.3, SVG Export Plug-In . SVG Version: 6.00 Build 0)  -->
<svg version="1.1" id="Layer_1" xmlns="http://www.w3.org/2000/svg" xmlns:xlink="http://www.w3.org/1999/xlink" x="0px" y="0px"
	 viewBox="0 0 459.3 137.3" style="enable-background:new 0 0 459.3 137.3;" xml:space="preserve">
<style type="text/css">
	.st0{fill:#FFFFFF;}
</style>
<g id="Layer_2_1_">
</g>
<g>
	<g>
		<g id="XMLID_1_">
			<g>
				<path class="st0" d="M450.6,77.8l-4,6.5v4.1c0,0.2-0.1,0.3-0.3,0.3h-1.6c-0.2,0-0.3-0.1-0.3-0.3v-4.1l-3.9-6.5
					c-0.1-0.2,0-0.4,0.2-0.4h2c0.2,0,0.3,0.1,0.4,0.2l2.6,4.5l2.6-4.5c0.1-0.1,0.2-0.2,0.4-0.2h1.9
					C450.6,77.4,450.7,77.6,450.6,77.8z"/>
				<path class="st0" d="M435.7,84h-5.8v4.4c0,0.2-0.1,0.3-0.3,0.3H428c-0.2,0-0.3-0.1-0.3-0.3V77.7c0-0.2,0.1-0.3,0.3-0.3h1.6
					c0.2,0,0.3,0.1,0.3,0.3v4.4h5.8v-4.4c0-0.2,0.1-0.3,0.3-0.3h1.6c0.2,0,0.3,0.1,0.3,0.3v10.7c0,0.2-0.1,0.3-0.3,0.3H436
					c-0.2,0-0.3-0.1-0.3-0.3V84z"/>
				<path class="st0" d="M422.9,81.5c0-1.1-0.9-2.1-2.4-2.1h-1.6v4.1h1.6C422,83.5,422.9,82.6,422.9,81.5z M420.6,77.4
					c2.7,0,4.6,1.6,4.6,4.1c0,2.4-1.9,3.9-4.7,4h-1.7v2.9c0,0.2-0.1,0.3-0.3,0.3h-1.6c-0.2,0-0.3-0.1-0.3-0.3V77.7
					c0-0.2,0.1-0.3,0.3-0.3C416.9,77.4,420.6,77.4,420.6,77.4z"/>
				<path class="st0" d="M410.5,84.6l-1.7-4.1l-1.7,4.1H410.5z M411.3,86.6h-4.9l-0.8,1.9c-0.1,0.2-0.2,0.2-0.3,0.2h-1.7
					c-0.2,0-0.3-0.1-0.2-0.3l4.7-10.7c0-0.1,0.2-0.2,0.4-0.2h1c0.2,0,0.3,0.1,0.4,0.2l4.6,10.7c-0.1,0.1-0.2,0.3-0.4,0.3h-1.7
					c-0.2,0-0.3-0.1-0.3-0.2L411.3,86.6z"/>
				<path class="st0" d="M400.8,104.7h5.1c0.2,0,0.3,0.1,0.3,0.3v1.4c0,0.2-0.1,0.3-0.3,0.3h-7c-0.2,0-0.3-0.1-0.3-0.3V95.7
					c0-0.2,0.1-0.3,0.3-0.3h1.6c0.2,0,0.3,0.1,0.3,0.3V104.7z"/>
				<path class="st0" d="M399.4,81.5c0-1.3-1-2.1-2.4-2.1h-1.6v4.1h1.5C398.4,83.5,399.4,82.7,399.4,81.5z M393.1,88.4V77.7
					c0-0.2,0.1-0.3,0.3-0.3h3.7c2.7,0,4.6,1.6,4.6,4.1c0,1.6-0.8,2.8-2.2,3.5l2.3,3.4c0.1,0.1,0,0.3-0.2,0.3h-1.9
					c-0.1,0-0.3-0.1-0.4-0.2l-2.1-3h-0.3h-1.7v2.9c0,0.2-0.1,0.3-0.3,0.3h-1.5C393.2,88.7,393.1,88.6,393.1,88.4z"/>
				<path class="st0" d="M392.5,102.6l-1.7-4.1l-1.7,4.1H392.5z M391.9,95.7l4.6,10.7c-0.1,0.1-0.2,0.3-0.5,0.3h-1.7
					c-0.2,0-0.3-0.1-0.3-0.2l-0.8-1.9h-4.8l-0.8,1.9c-0.1,0.2-0.2,0.2-0.3,0.2h-1.7c-0.2,0-0.3-0.1-0.2-0.3l4.7-10.7
					c0-0.1,0.2-0.2,0.4-0.2h1C391.7,95.5,391.8,95.6,391.9,95.7z"/>
				<path class="st0" d="M386,79.3c-2.2,0-3.9,1.5-3.9,3.7s1.7,3.8,3.9,3.8c0.8,0,1.6-0.2,2.1-0.4v-3c0-0.2,0.1-0.3,0.3-0.3h1.5
					c0.1,0,0.2,0.1,0.2,0.3v3.9c0,0.2,0,0.3-0.2,0.4c-0.5,0.4-1.8,1.2-4.1,1.2c-3.5,0-6-2.5-6-5.8s2.5-5.8,6.1-5.8
					c1.9,0,3.1,0.6,3.6,0.9c0.2,0.1,0.2,0.2,0.1,0.4l-0.7,1.2c-0.1,0.2-0.2,0.2-0.4,0.1C388.1,79.7,387.2,79.3,386,79.3z"/>
				<path class="st0" d="M383.2,95.5h1.8c0.2-0.1,0.3,0.1,0.2,0.3l-4.4,10.7c0,0.2-0.2,0.2-0.3,0.2h-0.9c-0.2,0-0.3-0.1-0.3-0.2
					l-4.5-10.7c-0.1-0.2,0-0.3,0.2-0.3h1.9c0.2,0,0.3,0.1,0.3,0.2l2.2,5.7l0.7,2.3l0.7-2.3l2.1-5.7
					C382.9,95.5,383.1,95.5,383.2,95.5z"/>
				<path class="st0" d="M373.3,23.2c0.3,0.2,0.4,0.5,0.2,0.9l-1.5,2.6c-0.2,0.4-0.5,0.4-0.9,0.2c-1.3-0.7-2.7-1.1-4.1-1.1
					s-2.1,0.4-2.1,1.1s0.5,1,3.2,1.8c3.8,1.1,5.5,2.8,5.5,5.6c0,3.8-2.6,6-7.1,6c-2.5,0-4.8-0.7-6.7-1.9c-0.3-0.2-0.4-0.6-0.2-0.9
					l1.7-2.8c0.2-0.4,0.5-0.4,0.9-0.2c1.5,1,2.8,1.5,4.8,1.5c1.2,0,1.8-0.5,1.8-1.3c0-0.9-0.7-1.3-3.3-2.1c-4-1.2-5.5-2.7-5.5-5.4
					c0-3.5,2.8-5.7,7.2-5.7C369.6,21.5,371.6,22.1,373.3,23.2z"/>
				<path class="st0" d="M370.1,106.4V95.7c0-0.2,0.1-0.3,0.3-0.3h1.6c0.2,0,0.3,0.1,0.3,0.3v10.7c0,0.2-0.1,0.3-0.3,0.3h-1.6
					C370.2,106.7,370.1,106.6,370.1,106.4z"/>
				<path class="st0" d="M365.8,83.1c0-3.3,2.5-5.8,6-5.8c3.4,0,5.9,2.5,5.9,5.8s-2.5,5.7-5.9,5.7C368.3,88.8,365.8,86.3,365.8,83.1
					z M368.1,83.1c0,2.1,1.6,3.7,3.7,3.7s3.6-1.6,3.6-3.7s-1.6-3.7-3.6-3.7C369.7,79.4,368.1,81,368.1,83.1z"/>
				<path class="st0" d="M361.9,97.4h-3.5c-0.2,0-0.3-0.1-0.3-0.3v-1.4c0-0.2,0.1-0.3,0.3-0.3h9.1c0.2,0,0.3,0.1,0.3,0.3v1.4
					c0,0.2-0.1,0.3-0.3,0.3h-3.4v9c0,0.2-0.1,0.3-0.3,0.3h-1.6c-0.2,0-0.3-0.1-0.3-0.3L361.9,97.4L361.9,97.4z"/>
				<path class="st0" d="M359.5,47.4l0.5,17c0,0.4-0.2,0.7-0.6,0.7h-3.6c-0.4,0-0.7-0.2-0.7-0.7l-0.1-7.9l-3.6,6.6
					c-0.2,0.3-0.4,0.5-0.8,0.5h-2c-0.3,0-0.6-0.1-0.8-0.4l-3.6-6.5v7.7c0,0.4-0.2,0.7-0.7,0.7h-3.6c-0.4,0-0.6-0.2-0.6-0.7l0.4-17
					c0-0.4,0.3-0.7,0.7-0.7h2.1c0.3,0,0.6,0.2,0.8,0.4l6.4,10.8l6.4-10.8c0.2-0.3,0.4-0.4,0.8-0.4h1.9
					C359.2,46.7,359.5,46.9,359.5,47.4z"/>
				<path class="st0" d="M358.7,79.4h-3.5c-0.2,0-0.3-0.1-0.3-0.3v-1.4c0-0.2,0.1-0.3,0.3-0.3h9.1c0.1,0,0.3,0.1,0.3,0.3v1.4
					c0,0.2-0.1,0.3-0.3,0.3h-3.4v9c0,0.2-0.1,0.3-0.3,0.3H359c-0.2,0-0.3-0.1-0.3-0.3V79.4z"/>
				<path class="st0" d="M353.1,99.9c1.9,0.6,3.4,1.3,3.4,3.5c0,2.1-1.6,3.4-4,3.4c-1.8,0-3.1-0.4-4.2-1.1c-0.1-0.1-0.2-0.3-0.1-0.5
					l0.8-1.2c0.1-0.2,0.2-0.2,0.4-0.1c0.9,0.7,2,1,3.1,1c1,0,1.8-0.4,1.8-1.3s-0.6-1.3-2.3-1.8c-1.9-0.5-3.4-1.3-3.4-3.2
					c0-2,1.6-3.3,4-3.3c1.5,0,2.7,0.4,3.5,1c0.2,0.1,0.2,0.3,0.1,0.4l-0.7,1.1c-0.1,0.2-0.3,0.2-0.4,0.1c-0.7-0.4-1.5-0.7-2.5-0.7
					s-1.8,0.4-1.8,1.2S351.5,99.5,353.1,99.9z"/>
				<path class="st0" d="M353.1,30.8c0,5.5-4.1,9.5-9.8,9.5c-5.7,0-9.9-4.1-9.9-9.5s4.2-9.5,9.9-9.5
					C348.9,21.3,353.1,25.3,353.1,30.8z M347.9,30.8c0-2.9-2-5-4.7-5c-2.8,0-4.8,2.1-4.8,5s2,5,4.8,5
					C345.9,35.8,347.9,33.7,347.9,30.8z"/>
				<path class="st0" d="M347.7,86.8c2.1,0,3.6-1.6,3.6-3.7s-1.6-3.7-3.6-3.7c-2.1,0-3.7,1.6-3.7,3.7S345.6,86.8,347.7,86.8z
					 M347.7,88.8c-3.5,0-6-2.5-6-5.7c0-3.3,2.5-5.8,6-5.8c3.4,0,5.9,2.5,5.9,5.8C353.6,86.4,351.1,88.8,347.7,88.8z"/>
				<path class="st0" d="M345.7,106.7h-7.2c-0.2,0-0.3-0.1-0.3-0.3V95.7c0-0.2,0.1-0.3,0.3-0.3h7.1c0.2,0,0.3,0.1,0.3,0.3v1.4
					c0,0.2-0.1,0.3-0.3,0.3h-5.2v2.6h4.5c0.2,0,0.3,0.1,0.3,0.3v1.4c0,0.2-0.1,0.3-0.3,0.3h-4.5v2.8h5.3c0.2-0.1,0.3,0,0.3,0.2v1.4
					C346,106.6,345.9,106.7,345.7,106.7z"/>
				<path class="st0" d="M331.5,61.4v3c0,0.4-0.2,0.7-0.7,0.7h-12c-0.4,0-0.7-0.2-0.7-0.7v-17c0-0.4,0.2-0.7,0.7-0.7h11.9
					c0.4,0,0.6,0.2,0.6,0.7v3c0,0.4-0.2,0.6-0.6,0.6h-7.6v2.6h6.6c0.4,0,0.7,0.2,0.7,0.6v2.9c0,0.4-0.2,0.7-0.7,0.7h-6.6v2.8h7.7
					C331.2,60.7,331.5,61,331.5,61.4z"/>
				<path class="st0" d="M328.7,88.4V77.7c0-0.2,0.1-0.3,0.3-0.3h1.6c0.2,0,0.3,0.1,0.3,0.3v4.4h5.8v-4.4c0-0.2,0.1-0.3,0.3-0.3h1.6
					c0.2,0,0.3,0.1,0.3,0.3v10.7c0,0.2-0.1,0.3-0.3,0.3H337c-0.2,0-0.3-0.1-0.3-0.3V84h-5.8v4.4c0,0.2-0.1,0.3-0.3,0.3H329
					C328.8,88.7,328.7,88.6,328.7,88.4z"/>
				<path class="st0" d="M328,106.5V95.8c0-0.2,0.1-0.3,0.3-0.3h7c0.2-0.1,0.3,0,0.3,0.2v1.4c0,0.2-0.1,0.3-0.3,0.3h-5.1v3.5h4.4
					c0.2,0,0.3,0.1,0.3,0.3v1.4c0,0.2-0.1,0.3-0.3,0.3h-4.4v3.6c0,0.2-0.1,0.3-0.3,0.3h-1.6C328.1,106.8,328,106.7,328,106.5z"/>
				<path class="st0" d="M326.3,39.2c0.4,0.5,0.2,0.8-0.4,0.8h-4.2c-0.3,0-0.6-0.1-0.8-0.4l-2.7-4.3h-2.1v4c0,0.4-0.2,0.7-0.6,0.7
					h-3.6c-0.4,0-0.6-0.2-0.6-0.7V22.4c0-0.4,0.2-0.7,0.6-0.7h7c4.7,0,7.5,3,7.5,6.9c0,2.5-1.3,4.6-3.5,5.7L326.3,39.2z M318.5,31.2
					c1.8,0,2.9-1.1,2.9-2.6s-1.1-2.7-3-2.7h-2.3v5.3H318.5z"/>
				<path class="st0" d="M323.9,81.5c0-1.1-0.9-2.1-2.4-2.1h-1.6v4.1h1.6C323,83.5,323.9,82.6,323.9,81.5z M317.5,88.4V77.7
					c0-0.2,0.1-0.3,0.3-0.3h3.7c2.8,0,4.6,1.6,4.6,4.1c0,2.4-1.9,3.9-4.7,4h-1.7v2.9c0,0.2-0.1,0.3-0.3,0.3h-1.6
					C317.6,88.7,317.5,88.6,317.5,88.4z"/>
				<path class="st0" d="M316.8,95.3c1.5,0,2.7,0.4,3.5,1c0.2,0.1,0.2,0.3,0.1,0.4l-0.7,1.1c-0.1,0.2-0.3,0.2-0.4,0.1
					c-0.7-0.4-1.5-0.7-2.5-0.7s-1.8,0.4-1.8,1.2c0,0.8,0.7,1.1,2.3,1.5c1.9,0.6,3.4,1.3,3.4,3.5c0,2.1-1.6,3.4-4,3.4
					c-1.8,0-3.2-0.4-4.2-1.1c-0.1-0.1-0.2-0.3-0.1-0.5l0.8-1.2c0.1-0.2,0.2-0.2,0.4-0.1c0.9,0.7,2,1,3.1,1c1,0,1.8-0.4,1.8-1.3
					s-0.6-1.3-2.3-1.8c-1.9-0.5-3.4-1.3-3.4-3.2C312.8,96.6,314.4,95.3,316.8,95.3z"/>
				<path class="st0" d="M310.2,55.9v6.6c0,0.3-0.1,0.5-0.3,0.7c-0.8,0.6-3.1,2.1-7.1,2.1c-5.7,0-9.8-4.1-9.8-9.3s4.1-9.5,10-9.5
					c3.1,0,5.1,0.8,6.2,1.5c0.3,0.2,0.4,0.5,0.2,0.9l-1.5,2.8c-0.2,0.4-0.5,0.5-0.9,0.3c-0.9-0.5-2-0.9-3.8-0.9
					c-3,0-5.1,1.9-5.1,4.9c0,2.9,2.2,4.9,4.9,4.9c0.9,0,1.7-0.1,2.5-0.4V56c0-0.4,0.2-0.6,0.7-0.6h3.2
					C310,55.3,310.2,55.5,310.2,55.9z"/>
				<path class="st0" d="M311,88.7h-7c-0.2,0-0.3-0.1-0.3-0.3V77.7c0-0.2,0.1-0.3,0.3-0.3h1.6c0.2,0,0.3,0.1,0.3,0.3v9h5.1
					c0.1,0,0.3,0.1,0.3,0.3v1.4C311.3,88.6,311.2,88.7,311,88.7z"/>
				<path class="st0" d="M305.1,106.4v-9h-3.5c-0.2,0-0.3-0.1-0.3-0.3v-1.4c0-0.2,0.1-0.3,0.3-0.3h9.1c0.1,0,0.3,0.1,0.3,0.3v1.4
					c0,0.2-0.1,0.3-0.3,0.3h-3.4v9c0,0.2-0.1,0.3-0.3,0.3h-1.6C305.2,106.7,305.1,106.6,305.1,106.4z"/>
				<path class="st0" d="M304.2,22.4v3.1c0,0.4-0.2,0.7-0.7,0.7h-5.3v13.2c0,0.4-0.2,0.7-0.6,0.7h-3.7c-0.4,0-0.6-0.2-0.6-0.7V26.1
					h-5.2c-0.4,0-0.7-0.2-0.7-0.7v-3c0-0.4,0.2-0.7,0.7-0.7h15.4C304,21.7,304.2,22,304.2,22.4z"/>
				<path class="st0" d="M295.4,103.5h-0.3h-1.7v2.9c0,0.2-0.1,0.3-0.3,0.3h-1.6c-0.2,0-0.3-0.1-0.3-0.3V95.7c0-0.2,0.1-0.3,0.3-0.3
					h3.7c2.7,0,4.6,1.6,4.6,4.1c0,1.6-0.8,2.8-2.2,3.5l2.3,3.4c0.2,0.1,0.1,0.3-0.1,0.3h-1.9c-0.1,0-0.3-0.1-0.4-0.2L295.4,103.5z
					 M295.1,101.5c1.5,0,2.5-0.8,2.5-2c0-1.3-1-2.1-2.4-2.1h-1.6v4.1H295.1z"/>
				<path class="st0" d="M294.1,84.6h3.4l-1.7-4.1L294.1,84.6z M295.1,77.7c0-0.1,0.2-0.2,0.4-0.2h1c0.2,0,0.3,0.1,0.4,0.2l4.6,10.7
					c-0.1,0.1-0.2,0.3-0.4,0.3h-1.7c-0.2,0-0.3-0.1-0.3-0.2l-0.8-1.9h-4.9l-0.8,1.9c-0.1,0.2-0.2,0.2-0.3,0.2h-1.7
					c-0.2,0-0.3-0.1-0.2-0.3L295.1,77.7z"/>
				<path class="st0" d="M287.9,64.2c0.1,0.5-0.2,0.8-0.6,0.8h-3.8c-0.4,0-0.6-0.2-0.8-0.5l-1-2.6h-6.6l-1,2.6
					c-0.1,0.3-0.4,0.5-0.8,0.5h-3.7c-0.5,0-0.7-0.3-0.5-0.8l7.7-17c0.2-0.3,0.4-0.5,0.8-0.5h1.9c0.4,0,0.6,0.2,0.8,0.5L287.9,64.2z
					 M280.5,58.2l-2.1-5l-2.1,5H280.5z"/>
				<path class="st0" d="M280.4,22.4v17.2c0,0.4-0.2,0.6-0.6,0.6h-1.6c-0.3,0-0.6-0.1-0.8-0.4l-9-9.8v9.4c0,0.4-0.2,0.7-0.6,0.7
					h-3.6c-0.4,0-0.6-0.2-0.6-0.7V22.2c0-0.4,0.2-0.6,0.6-0.6h1.6c0.3,0,0.5,0.1,0.8,0.3l8.9,9.6v-9.1c0-0.4,0.2-0.7,0.7-0.7h3.6
					C280.2,21.7,280.4,22,280.4,22.4z"/>
				<path class="st0" d="M279.3,77.4l6.5,7.3v-7.1c0-0.2,0.1-0.3,0.3-0.3h1.6c0.3,0.1,0.4,0.2,0.4,0.4v10.8c0,0.2-0.1,0.3-0.3,0.3
					h-0.7c-0.2,0-0.3,0-0.4-0.2l-6.6-7.4v7.1c0,0.2-0.1,0.3-0.3,0.3h-1.6c-0.2,0-0.3-0.1-0.3-0.3V77.5c0-0.2,0.1-0.3,0.3-0.3h0.7
					C279.1,77.2,279.2,77.3,279.3,77.4z"/>
				<path class="st0" d="M285.2,102.6l-1.7-4.1l-1.7,4.1H285.2z M284.7,95.7l4.6,10.7c-0.2,0.1-0.3,0.3-0.5,0.3h-1.7
					c-0.2,0-0.3-0.1-0.3-0.2l-0.8-1.9h-4.8l-0.8,1.9c-0.1,0.2-0.2,0.2-0.3,0.2h-1.7c-0.2,0-0.3-0.1-0.2-0.3l4.7-10.7
					c0-0.1,0.2-0.2,0.4-0.2h1C284.5,95.5,284.6,95.6,284.7,95.7z"/>
				<path class="st0" d="M268,104.7h5.1c0.2,0,0.3,0.1,0.3,0.3v1.4c0,0.2-0.1,0.3-0.3,0.3h-7c-0.2,0-0.3-0.1-0.3-0.3V95.7
					c0-0.2,0.1-0.3,0.3-0.3h1.6c0.2,0,0.3,0.1,0.3,0.3V104.7z"/>
				<path class="st0" d="M275.2,83.1c0,3.3-2.5,5.7-5.9,5.7c-3.5,0-6-2.5-6-5.7c0-3.3,2.5-5.8,6-5.8
					C272.7,77.3,275.2,79.8,275.2,83.1z M269.2,86.8c2.1,0,3.6-1.6,3.6-3.7s-1.6-3.7-3.6-3.7c-2.1,0-3.7,1.6-3.7,3.7
					S267.1,86.8,269.2,86.8z"/>
				<path class="st0" d="M261.9,47.4l0.5,17c0,0.4-0.2,0.7-0.6,0.7h-3.6c-0.4,0-0.7-0.2-0.7-0.7l-0.1-7.9l-3.6,6.6
					c-0.2,0.3-0.4,0.5-0.8,0.5h-2c-0.3,0-0.6-0.1-0.8-0.4l-3.6-6.5v7.7c0,0.4-0.2,0.7-0.7,0.7h-3.6c-0.4,0-0.6-0.2-0.6-0.7l0.4-17
					c0-0.4,0.3-0.7,0.7-0.7h2.1c0.3,0,0.6,0.2,0.8,0.4l6.4,10.8l6.4-10.8c0.2-0.3,0.4-0.4,0.8-0.4h1.9
					C261.6,46.7,261.9,46.9,261.9,47.4z"/>
				<path class="st0" d="M260.4,88.4c0,0.2-0.1,0.3-0.3,0.3h-1.6c-0.2,0-0.3-0.1-0.3-0.3V77.7c0-0.2,0.1-0.3,0.3-0.3h1.6
					c0.2,0,0.3,0.1,0.3,0.3V88.4z"/>
				<path class="st0" d="M257.4,95.7c0-0.1,0.2-0.2,0.4-0.2h1c0.2,0,0.3,0.1,0.4,0.2l4.6,10.7c-0.2,0.1-0.3,0.3-0.5,0.3h-1.7
					c-0.2,0-0.3-0.1-0.3-0.2l-0.8-1.9h-4.8l-0.8,1.9c-0.1,0.2-0.2,0.2-0.3,0.2h-1.7c-0.2,0-0.3-0.1-0.2-0.3L257.4,95.7z
					 M259.7,102.6l-1.7-4.1l-1.7,4.1H259.7z"/>
				<path class="st0" d="M255.8,30.8c0,5.5-4.1,9.5-9.8,9.5s-9.9-4.1-9.9-9.5s4.2-9.5,9.9-9.5C251.6,21.3,255.8,25.3,255.8,30.8z
					 M250.7,30.8c0-2.9-2-5-4.7-5c-2.8,0-4.8,2.1-4.8,5s2,5,4.8,5C248.7,35.8,250.7,33.7,250.7,30.8z"/>
				<path class="st0" d="M246.5,77.4h9.1c0.2,0,0.3,0.1,0.3,0.3v1.4c0,0.2-0.1,0.3-0.3,0.3h-3.4v9c0,0.2-0.1,0.3-0.3,0.3h-1.6
					c-0.2,0-0.3-0.1-0.3-0.3v-9h-3.5c-0.2,0-0.3-0.1-0.3-0.3v-1.4C246.2,77.5,246.3,77.4,246.5,77.4z"/>
				<path class="st0" d="M243,102c0,1.5,0.9,2.8,2.8,2.8c1.8,0,2.7-1.3,2.7-2.8v-6.3c0-0.2,0.1-0.3,0.3-0.3h1.6
					c0.2,0,0.3,0.1,0.3,0.3v6.1c0,3.2-2,5-4.9,5c-3,0-5-1.7-5-5v-6.1c0-0.2,0.1-0.3,0.3-0.3h1.6c0.2,0,0.3,0.1,0.3,0.3L243,102
					L243,102z"/>
				<path class="st0" d="M242.5,84.6l-1.7-4.1l-1.7,4.1H242.5z M235.4,88.4l4.7-10.7c0-0.1,0.2-0.2,0.4-0.2h1c0.2,0,0.3,0.1,0.4,0.2
					l4.6,10.7c-0.1,0.1-0.2,0.3-0.5,0.3h-1.7c-0.2,0-0.3-0.1-0.3-0.2l-0.8-1.9h-4.8l-0.8,1.9c-0.1,0.2-0.2,0.2-0.3,0.2h-1.7
					C235.4,88.7,235.3,88.6,235.4,88.4z"/>
				<path class="st0" d="M233.5,47.4v17c0,0.4-0.2,0.7-0.7,0.7h-3.7c-0.4-0.1-0.7-0.3-0.7-0.7v-17c0-0.4,0.2-0.7,0.7-0.7h3.7
					C233.2,46.7,233.5,46.9,233.5,47.4z"/>
				<path class="st0" d="M234.3,95.3c1.5,0,2.7,0.4,3.5,1c0.2,0.1,0.2,0.3,0.1,0.4l-0.7,1.1c-0.1,0.2-0.3,0.2-0.4,0.1
					c-0.7-0.4-1.5-0.7-2.5-0.7s-1.8,0.4-1.8,1.2c0,0.8,0.7,1.1,2.3,1.5c1.9,0.6,3.4,1.3,3.4,3.5c0,2.1-1.6,3.4-4,3.4
					c-1.8,0-3.2-0.4-4.2-1.1c-0.1-0.1-0.2-0.3-0.1-0.5l0.8-1.2c0.1-0.2,0.2-0.2,0.4-0.1c0.9,0.7,2,1,3.1,1c1,0,1.8-0.4,1.8-1.3
					s-0.6-1.3-2.3-1.8c-1.9-0.5-3.4-1.3-3.4-3.2C230.3,96.6,231.9,95.3,234.3,95.3z"/>
				<path class="st0" d="M230,37.9c0.2,0.4,0.2,0.6-0.3,0.9c-0.4,0.2-2.3,1.5-5.8,1.5c-5.6,0-9.5-4.2-9.5-9.4s3.8-9.4,9.6-9.4
					c3,0,4.9,0.9,5.8,1.5c0.3,0.2,0.4,0.5,0.2,0.9l-1.5,2.8c-0.2,0.4-0.5,0.4-0.9,0.2c-0.6-0.4-1.7-0.8-3-0.8
					c-3.1,0-5.1,1.8-5.1,4.8c0,3.1,2,4.9,5.1,4.9c1.4,0,2.4-0.5,3-0.9c0.4-0.2,0.7-0.2,0.9,0.2L230,37.9z"/>
				<path class="st0" d="M227.2,106.4c0,0.2-0.1,0.3-0.3,0.3h-1.6c-0.2,0-0.3-0.1-0.3-0.3V95.7c0-0.2,0.1-0.3,0.3-0.3h1.6
					c0.2,0,0.3,0.1,0.3,0.3V106.4z"/>
				<path class="st0" d="M224.2,77.4l6.5,7.3v-7.1c0-0.2,0.1-0.3,0.3-0.3h1.6c0.3,0.1,0.4,0.2,0.4,0.4v10.8c0,0.2-0.1,0.3-0.3,0.3
					H232c-0.2,0-0.3,0-0.4-0.2l-6.6-7.4v7.1c0,0.2-0.1,0.3-0.3,0.3h-1.6c-0.2,0-0.3-0.1-0.3-0.3V77.5c0-0.2,0.1-0.3,0.3-0.3h0.7
					C224,77.2,224.1,77.3,224.2,77.4z"/>
				<path class="st0" d="M216.7,106.5l-4.5-10.7c-0.1-0.2,0-0.3,0.2-0.3h1.9c0.2,0,0.3,0.1,0.3,0.2l2.2,5.7l0.7,2.3l0.7-2.3l2.1-5.7
					c0-0.2,0.2-0.2,0.3-0.2h1.8c0.2-0.1,0.3,0.1,0.2,0.3l-4.4,10.7c0,0.2-0.2,0.2-0.3,0.2H217C216.8,106.7,216.7,106.6,216.7,106.5z
					"/>
				<path class="st0" d="M215.2,83.5c1.5,0,2.5-0.8,2.5-2c0-1.3-1-2.1-2.4-2.1h-1.6v4.1H215.2z M217.6,88.5l-2.1-3h-0.3h-1.7v2.9
					c0,0.2-0.1,0.3-0.3,0.3h-1.6c-0.2,0-0.3-0.1-0.3-0.3V77.7c0-0.2,0.1-0.3,0.3-0.3h3.7c2.7,0,4.6,1.6,4.6,4.1
					c0,1.6-0.8,2.8-2.2,3.5l2.3,3.4c0.2,0.1,0.1,0.3-0.1,0.3H218C217.9,88.7,217.7,88.6,217.6,88.5z"/>
				<path class="st0" d="M211.9,64.2c0.1,0.5-0.1,0.8-0.6,0.8h-3.8c-0.4,0-0.6-0.2-0.8-0.5l-1-2.6h-6.6l-1,2.6
					c-0.1,0.3-0.4,0.5-0.8,0.5h-3.7c-0.5,0-0.7-0.3-0.5-0.8l7.7-17c0.2-0.3,0.4-0.5,0.8-0.5h1.9c0.4,0,0.6,0.2,0.8,0.5L211.9,64.2z
					 M204.5,58.2l-2.1-5l-2.1,5H204.5z"/>
				<path class="st0" d="M208.7,22.4v17.2c0,0.4-0.2,0.6-0.6,0.6h-1.7c-0.3,0-0.6-0.1-0.8-0.4l-9-9.8v9.4c0,0.4-0.2,0.7-0.7,0.7
					h-3.6c-0.4,0-0.6-0.2-0.6-0.7V22.2c0-0.4,0.2-0.6,0.6-0.6h1.6c0.3,0,0.5,0.1,0.8,0.3l8.9,9.6v-9.1c0-0.4,0.2-0.7,0.7-0.7h3.6
					C208.5,21.7,208.7,22,208.7,22.4z"/>
				<path class="st0" d="M207.3,84h-4.5v2.8h5.3c0.2-0.1,0.3,0,0.3,0.2v1.4c0,0.2-0.1,0.3-0.3,0.3h-7.2c-0.2,0-0.3-0.1-0.3-0.3V77.7
					c0-0.2,0.1-0.3,0.3-0.3h7.1c0.2,0,0.3,0.1,0.3,0.3v1.4c0,0.2-0.1,0.3-0.3,0.3h-5.2V82h4.5c0.2,0,0.3,0.1,0.3,0.3v1.4
					C207.6,83.9,207.5,84,207.3,84z"/>
				<path class="st0" d="M200.5,95.3c3.5,0.1,5.9,2.4,5.9,5.7c0,3.4-2.4,5.6-5.9,5.6h-4c-0.2,0-0.3-0.1-0.3-0.3V95.6
					c0-0.2,0.1-0.3,0.3-0.3C196.5,95.3,200.5,95.3,200.5,95.3z M204.1,101.1c0-2.2-1.4-3.7-3.8-3.7h-2v7.3h2
					C202.7,104.7,204.1,103.3,204.1,101.1z"/>
				<path class="st0" d="M192.4,88.4v-9h-3.5c-0.2,0-0.3-0.1-0.3-0.3v-1.4c0-0.2,0.1-0.3,0.3-0.3h9.1c0.2,0,0.3,0.1,0.3,0.3v1.4
					c0,0.2-0.1,0.3-0.3,0.3h-3.4v9c0,0.2-0.1,0.3-0.3,0.3h-1.6C192.5,88.7,192.4,88.6,192.4,88.4z"/>
				<path class="st0" d="M177.6,46.7c6.4,0,10.2,3.7,10.2,9.2s-3.8,9.2-10.2,9.2H171c-0.4,0-0.7-0.2-0.7-0.7v-17
					c0-0.4,0.2-0.7,0.7-0.7H177.6z M182.7,55.9c0-2.9-1.7-4.8-4.8-4.8h-2.5v9.5h2.6C181,60.7,182.7,58.8,182.7,55.9z"/>
				<path class="st0" d="M192.6,95.7v10.8c0,0.2-0.1,0.3-0.3,0.3h-0.7c-0.2,0-0.3,0-0.4-0.2l-6.6-7.4v7.1c0,0.2-0.1,0.3-0.3,0.3
					h-1.6c-0.2,0-0.3-0.1-0.3-0.3V95.5c0-0.2,0.1-0.3,0.3-0.3h0.7c0.2,0,0.3,0.1,0.4,0.2l6.5,7.3v-7.1c0-0.2,0.1-0.3,0.3-0.3h1.6
					C192.5,95.4,192.6,95.5,192.6,95.7z"/>
				<path class="st0" d="M183.7,36.4v3c0,0.4-0.2,0.7-0.7,0.7h-12c-0.4,0-0.7-0.2-0.7-0.7v-17c0-0.4,0.2-0.7,0.7-0.7h11.9
					c0.4,0,0.6,0.2,0.6,0.7v3c0,0.4-0.2,0.6-0.6,0.6h-7.6v2.6h6.6c0.4,0,0.7,0.2,0.7,0.6v2.9c0,0.4-0.2,0.7-0.7,0.7h-6.6v2.8h7.7
					C183.4,35.7,183.7,36,183.7,36.4z"/>
				<path class="st0" d="M176.1,88.3V77.5c0-0.2,0.1-0.3,0.3-0.3h0.7c0.2,0,0.3,0.1,0.4,0.2l6.5,7.3v-7.1c0-0.2,0.1-0.3,0.3-0.3h1.6
					c0.3,0.1,0.4,0.2,0.4,0.4v10.8c0,0.2-0.1,0.3-0.3,0.3h-0.7c-0.2,0-0.3,0-0.4-0.2l-6.6-7.4v7.1c0,0.2-0.1,0.3-0.3,0.3h-1.6
					C176.2,88.6,176.1,88.5,176.1,88.3z"/>
				<path class="st0" d="M172.7,88.4c0,0.2-0.1,0.3-0.3,0.3h-1.6c-0.2,0-0.3-0.1-0.3-0.3V77.7c0-0.2,0.1-0.3,0.3-0.3h1.6
					c0.2,0,0.3,0.1,0.3,0.3V88.4z"/>
				<path class="st0" d="M176.4,102.6l-1.7-4.1l-1.7,4.1H176.4z M175.7,95.7l4.6,10.7c0,0.1-0.1,0.3-0.3,0.3h-1.7
					c-0.2,0-0.3-0.1-0.3-0.2l-0.8-1.9h-4.8l-0.8,1.9c-0.1,0.2-0.2,0.2-0.3,0.2h-1.9c-0.2,0-0.3-0.1-0.2-0.3l4.7-10.7
					c0-0.1,0.2-0.2,0.4-0.2h1C175.5,95.5,175.6,95.6,175.7,95.7z"/>
				<path class="st0" d="M65.3,0c36,0,65.3,29.3,65.3,65.3s-29.3,65.3-65.3,65.3S0,101.3,0,65.3S29.3,0,65.3,0z M6.2,65.3
					c0,32.6,26.5,59.1,59.1,59.1s59.1-26.5,59.1-59.1S97.9,6.2,65.3,6.2S6.2,32.7,6.2,65.3z"/>
				<polygon class="st0" points="86,76.8 86,83 68.4,83 68.4,76.8 74.1,76.8 74.1,53.8 68.4,53.8 68.4,47.6 86,47.6 86,53.8 
					80.3,53.8 80.3,76.8 				"/>
				<rect x="59.3" y="62.3" class="st0" width="6.1" height="6.1"/>
				<polygon class="st0" points="61.8,76.8 61.8,83 44.5,83 44.5,68.4 50.7,68.4 50.7,76.8 				"/>
				<polygon class="st0" points="61.8,47.6 61.8,53.8 50.7,53.8 50.7,62.2 44.5,62.2 44.5,47.6 				"/>
			</g>
		</g>
	</g>
</g>
</svg>
