<?xml version="1.0" encoding="utf-8"?>
<!-- Generator: Adobe Illustrator 23.0.3, SVG Export Plug-In . SVG Version: 6.00 Build 0)  -->
<svg version="1.1" id="Layer_1" xmlns="http://www.w3.org/2000/svg" xmlns:xlink="http://www.w3.org/1999/xlink" x="0px" y="0px"
	 viewBox="0 0 1366 768" style="enable-background:new 0 0 1366 768;" xml:space="preserve">
<path d="M881.8,574l-53.4-55.5c13.7-16.3,21.3-36.9,21.3-58.2c0-50-40.6-90.6-90.6-90.6s-90.6,40.6-90.6,90.6
	c0,49.9,40.6,90.6,90.6,90.6c18.7,0,36.6-5.7,51.9-16.4l53.8,56c2.2,2.3,5.3,3.6,8.5,3.6c3.1,0,6-1.2,8.2-3.3
	C886.2,586.2,886.4,578.7,881.8,574z M759.1,393.3c36.9,0,67,30,67,67c0,36.9-30,67-67,67c-36.9,0-67-30-67-67
	C692.2,423.3,722.2,393.3,759.1,393.3z"/>
</svg>
