<?xml version="1.0" encoding="utf-8"?>
<!-- Generator: Adobe Illustrator 23.0.3, SVG Export Plug-In . SVG Version: 6.00 Build 0)  -->
<svg version="1.1" id="Layer_1" xmlns="http://www.w3.org/2000/svg" xmlns:xlink="http://www.w3.org/1999/xlink" x="0px" y="0px"
	 viewBox="0 0 1366 768" style="enable-background:new 0 0 1366 768;" xml:space="preserve">
<path d="M697.2,397.1l-7.2-7.5c1.8-2.2,2.9-5,2.9-7.8c0-6.7-5.5-12.2-12.2-12.2s-12.2,5.5-12.2,12.2c0,6.7,5.5,12.2,12.2,12.2
	c2.5,0,4.9-0.8,7-2.2l7.2,7.5c0.3,0.3,0.7,0.5,1.1,0.5c0.4,0,0.8-0.2,1.1-0.4C697.8,398.8,697.8,397.8,697.2,397.1z M680.7,372.8
	c5,0,9,4,9,9c0,5-4,9-9,9c-5,0-9-4-9-9C671.7,376.9,675.7,372.8,680.7,372.8z"/>
</svg>
